<svg xmlns:xlink="http://www.w3.org/1999/xlink" version="1.1" class="highcharts-root" style="font-family: Helvetica, Arial, sans-serif; font-size: 1rem;" xmlns="http://www.w3.org/2000/svg" width="600" height="400" viewBox="0 0 600 400" role="img" aria-label=""><desc>Created with Highcharts 11.4.8</desc><defs><filter id="highcharts-drop-shadow-2"><feDropShadow dx="1" dy="1" flood-color="#000000" flood-opacity="0.75" stdDeviation="2.5"></feDropShadow></filter><clipPath id="highcharts-9owpry7-51-"><rect x="0" y="0" width="517" height="281" fill="none"></rect></clipPath></defs><rect fill="#ffffff" class="highcharts-background" filter="none" x="0" y="0" width="600" height="400" rx="0" ry="0"></rect><rect fill="none" class="highcharts-plot-background" x="73" y="10" width="517" height="281" filter="none"></rect><g class="highcharts-grid highcharts-xaxis-grid" data-z-index="1"><path fill="none" stroke="#e6e6e6" stroke-width="0" stroke-dasharray="none" data-z-index="1" class="highcharts-grid-line" d="M 137.5 10 L 137.5 291" opacity="1"></path><path fill="none" stroke="#e6e6e6" stroke-width="0" stroke-dasharray="none" data-z-index="1" class="highcharts-grid-line" d="M 202.5 10 L 202.5 291" opacity="1"></path><path fill="none" stroke="#e6e6e6" stroke-width="0" stroke-dasharray="none" data-z-index="1" class="highcharts-grid-line" d="M 266.5 10 L 266.5 291" opacity="1"></path><path fill="none" stroke="#e6e6e6" stroke-width="0" stroke-dasharray="none" data-z-index="1" class="highcharts-grid-line" d="M 331.5 10 L 331.5 291" opacity="1"></path><path fill="none" stroke="#e6e6e6" stroke-width="0" stroke-dasharray="none" data-z-index="1" class="highcharts-grid-line" d="M 396.5 10 L 396.5 291" opacity="1"></path><path fill="none" stroke="#e6e6e6" stroke-width="0" stroke-dasharray="none" data-z-index="1" class="highcharts-grid-line" d="M 460.5 10 L 460.5 291" opacity="1"></path><path fill="none" stroke="#e6e6e6" stroke-width="0" stroke-dasharray="none" data-z-index="1" class="highcharts-grid-line" d="M 525.5 10 L 525.5 291" opacity="1"></path><path fill="none" stroke="#e6e6e6" stroke-width="0" stroke-dasharray="none" data-z-index="1" class="highcharts-grid-line" d="M 590.5 10 L 590.5 291" opacity="1"></path><path fill="none" stroke="#e6e6e6" stroke-width="0" stroke-dasharray="none" data-z-index="1" class="highcharts-grid-line" d="M 73.5 10 L 73.5 291" opacity="1"></path></g><g class="highcharts-grid highcharts-yaxis-grid" data-z-index="1"><path fill="none" stroke="#e6e6e6" stroke-width="1" stroke-dasharray="none" data-z-index="1" class="highcharts-grid-line" d="M 73 291.5 L 590 291.5" opacity="1"></path><path fill="none" stroke="#e6e6e6" stroke-width="1" stroke-dasharray="none" data-z-index="1" class="highcharts-grid-line" d="M 73 220.5 L 590 220.5" opacity="1"></path><path fill="none" stroke="#e6e6e6" stroke-width="1" stroke-dasharray="none" data-z-index="1" class="highcharts-grid-line" d="M 73 150.5 L 590 150.5" opacity="1"></path><path fill="none" stroke="#e6e6e6" stroke-width="1" stroke-dasharray="none" data-z-index="1" class="highcharts-grid-line" d="M 73 80.5 L 590 80.5" opacity="1"></path><path fill="none" stroke="#e6e6e6" stroke-width="1" stroke-dasharray="none" data-z-index="1" class="highcharts-grid-line" d="M 73 10.5 L 590 10.5" opacity="1"></path></g><rect fill="none" class="highcharts-plot-border" data-z-index="1" stroke="#cccccc" stroke-width="0" x="73" y="10" width="517" height="281"></rect><g class="highcharts-axis highcharts-xaxis" data-z-index="2"><text x="331.5" data-z-index="7" text-anchor="middle" transform="translate(0,0)" class="highcharts-axis-title" style="color: rgb(102, 102, 102); font-size: 0.8em; fill: rgb(102, 102, 102);" y="339">Días</text><path fill="none" class="highcharts-axis-line" stroke="#333333" stroke-width="1" data-z-index="7" d="M 73 291.5 L 590 291.5"></path></g><g class="highcharts-axis highcharts-yaxis" data-z-index="2"><text x="26.072021484375" data-z-index="7" text-anchor="middle" transform="translate(0,0) rotate(270 26.072021484375 150.5)" class="highcharts-axis-title" style="color: rgb(102, 102, 102); font-size: 0.8em; fill: rgb(102, 102, 102);" y="150.5">Ganancias</text><path fill="none" class="highcharts-axis-line" stroke="#333333" stroke-width="0" data-z-index="7" d="M 73 10 L 73 291"></path></g><g class="highcharts-series-group" data-z-index="3" filter="none"><g class="highcharts-series highcharts-series-0 highcharts-line-series" data-z-index="0.1" opacity="1" transform="translate(73,10) scale(1 1)" clip-path="url(#highcharts-9owpry7-51-)"><path fill="none" d="M 32.3125 70.25 L 96.9375 281 L 161.5625 281 L 226.1875 281 L 290.8125 224.8 L 355.4375 281 L 420.0625 281 L 484.6875 281" class="highcharts-graph" data-z-index="1" stroke="#b88a64" stroke-width="2" stroke-linejoin="round" stroke-linecap="round" filter="none"></path></g><g class="highcharts-markers highcharts-series-0 highcharts-line-series" data-z-index="0.1" opacity="1" transform="translate(73,10) scale(1 1)" clip-path="none"><path fill="#b88a64" d="M 32.5 74.25 A 4 4 0 1 1 32.500199999999914 74.249999995 Z" stroke="#ffffff" stroke-width="0" opacity="1" class="highcharts-point"></path><path fill="#b88a64" d="M 96.5 285 A 4 4 0 1 1 96.50019999999992 284.999999995 Z" stroke="#ffffff" stroke-width="0" opacity="1" class="highcharts-point"></path><path fill="#b88a64" d="M 161.5 285 A 4 4 0 1 1 161.50019999999992 284.999999995 Z" stroke="#ffffff" stroke-width="0" opacity="1" class="highcharts-point"></path><path fill="#b88a64" d="M 226.5 285 A 4 4 0 1 1 226.50019999999992 284.999999995 Z" stroke="#ffffff" stroke-width="0" opacity="1" class="highcharts-point"></path><path fill="#b88a64" d="M 290.5 228.8 A 4 4 0 1 1 290.5001999999999 228.799999995 Z" stroke="#ffffff" stroke-width="0" opacity="1" class="highcharts-point"></path><path fill="#b88a64" d="M 355.5 285 A 4 4 0 1 1 355.5001999999999 284.999999995 Z" stroke="#ffffff" stroke-width="0" opacity="1" class="highcharts-point"></path><path fill="#b88a64" d="M 420.5 285 A 4 4 0 1 1 420.5001999999999 284.999999995 Z" stroke="#ffffff" stroke-width="0" opacity="1" class="highcharts-point"></path><path fill="#b88a64" d="M 484.5 285 A 4 4 0 1 1 484.5001999999999 284.999999995 Z" stroke="#ffffff" stroke-width="0" opacity="1" class="highcharts-point"></path></g><g class="highcharts-series highcharts-series-1 highcharts-line-series" data-z-index="0.1" opacity="1" transform="translate(73,10) scale(1 1)" clip-path="url(#highcharts-9owpry7-51-)"><path fill="none" d="M 32.3125 196.7 L 96.9375 281 L 161.5625 281 L 226.1875 281 L 290.8125 228.3125 L 355.4375 281 L 420.0625 281 L 484.6875 281" class="highcharts-graph" data-z-index="1" stroke="#6c6c70" stroke-width="2" stroke-linejoin="round" stroke-linecap="round" filter="none"></path></g><g class="highcharts-markers highcharts-series-1 highcharts-line-series" data-z-index="0.1" opacity="1" transform="translate(73,10) scale(1 1)" clip-path="none"><path fill="#6c6c70" d="M 32.5 192.7 L 36.5 196.7 L 32.5 200.7 L 28.5 196.7 Z" stroke="#ffffff" stroke-width="0" opacity="1" class="highcharts-point"></path><path fill="#6c6c70" d="M 96.5 277 L 100.5 281 L 96.5 285 L 92.5 281 Z" stroke="#ffffff" stroke-width="0" opacity="1" class="highcharts-point"></path><path fill="#6c6c70" d="M 161.5 277 L 165.5 281 L 161.5 285 L 157.5 281 Z" stroke="#ffffff" stroke-width="0" opacity="1" class="highcharts-point"></path><path fill="#6c6c70" d="M 226.5 277 L 230.5 281 L 226.5 285 L 222.5 281 Z" stroke="#ffffff" stroke-width="0" opacity="1" class="highcharts-point"></path><path fill="#6c6c70" d="M 290.5 224.3125 L 294.5 228.3125 L 290.5 232.3125 L 286.5 228.3125 Z" stroke="#ffffff" stroke-width="0" opacity="1" class="highcharts-point"></path><path fill="#6c6c70" d="M 355.5 277 L 359.5 281 L 355.5 285 L 351.5 281 Z" stroke="#ffffff" stroke-width="0" opacity="1" class="highcharts-point"></path><path fill="#6c6c70" d="M 420.5 277 L 424.5 281 L 420.5 285 L 416.5 281 Z" stroke="#ffffff" stroke-width="0" opacity="1" class="highcharts-point"></path><path fill="#6c6c70" d="M 484.5 277 L 488.5 281 L 484.5 285 L 480.5 281 Z" stroke="#ffffff" stroke-width="0" opacity="1" class="highcharts-point"></path></g></g><text x="300" text-anchor="middle" class="highcharts-title" data-z-index="4" style="font-size: 1.2em; color: rgb(51, 51, 51); font-weight: bold; fill: rgb(51, 51, 51);" y="25"></text><text x="300" text-anchor="middle" class="highcharts-subtitle" data-z-index="4" style="color: rgb(102, 102, 102); font-size: 0.8em; fill: rgb(102, 102, 102);" y="24"></text><text x="10" text-anchor="start" class="highcharts-caption" data-z-index="4" style="color: rgb(102, 102, 102); font-size: 0.8em; fill: rgb(102, 102, 102);" y="397"></text><g class="highcharts-legend highcharts-no-tooltip" data-z-index="7" transform="translate(205,355)"><rect fill="none" class="highcharts-legend-box" rx="0" ry="0" stroke="#999999" stroke-width="0" filter="none" x="0" y="0" width="190" height="30"></rect><g data-z-index="1"><g><g class="highcharts-legend-item highcharts-line-series highcharts-color-undefined highcharts-series-0" data-z-index="1" transform="translate(8,3)"><path fill="none" class="highcharts-graph" stroke-width="2" stroke-linecap="round" d="M 1 13 L 15 13" stroke="#b88a64"></path><path fill="#b88a64" d="M 8 17 A 4 4 0 1 1 8.000199999999918 16.999999995 Z" class="highcharts-point" stroke="#ffffff" stroke-width="0" opacity="1"></path><text x="21" text-anchor="start" data-z-index="2" style="color: rgb(51, 51, 51); cursor: pointer; font-size: 0.8em; text-decoration: none; fill: rgb(51, 51, 51);" y="17">Pastelería</text></g><g class="highcharts-legend-item highcharts-line-series highcharts-color-undefined highcharts-series-1" data-z-index="1" transform="translate(106.5,3)"><path fill="none" class="highcharts-graph" stroke-width="2" stroke-linecap="round" d="M 1 13 L 15 13" stroke="#6c6c70"></path><path fill="#6c6c70" d="M 8 9 L 12 13 L 8 17 L 4 13 Z" class="highcharts-point" stroke="#ffffff" stroke-width="0" opacity="1"></path><text x="21" y="17" text-anchor="start" data-z-index="2" style="color: rgb(51, 51, 51); cursor: pointer; font-size: 0.8em; text-decoration: none; fill: rgb(51, 51, 51);">Cafetería</text></g></g></g></g><g class="highcharts-axis-labels highcharts-xaxis-labels" data-z-index="7"><text x="105.3125" text-anchor="middle" transform="translate(0,0)" style="color: rgb(51, 51, 51); cursor: default; font-size: 0.8em; fill: rgb(51, 51, 51);" y="318" opacity="1">martes</text><text x="169.9375" text-anchor="middle" transform="translate(0,0)" style="color: rgb(51, 51, 51); cursor: default; font-size: 0.8em; fill: rgb(51, 51, 51);" y="318" opacity="1">miércoles</text><text x="234.5625" text-anchor="middle" transform="translate(0,0)" style="color: rgb(51, 51, 51); cursor: default; font-size: 0.8em; fill: rgb(51, 51, 51);" y="318" opacity="1">jueves</text><text x="299.1875" text-anchor="middle" transform="translate(0,0)" style="color: rgb(51, 51, 51); cursor: default; font-size: 0.8em; fill: rgb(51, 51, 51);" y="318" opacity="1">viernes</text><text x="363.8125" text-anchor="middle" transform="translate(0,0)" style="color: rgb(51, 51, 51); cursor: default; font-size: 0.8em; fill: rgb(51, 51, 51);" y="318" opacity="1">sábado</text><text x="428.4375" text-anchor="middle" transform="translate(0,0)" style="color: rgb(51, 51, 51); cursor: default; font-size: 0.8em; fill: rgb(51, 51, 51);" y="318" opacity="1">domingo</text><text x="493.0625" text-anchor="middle" transform="translate(0,0)" style="color: rgb(51, 51, 51); cursor: default; font-size: 0.8em; fill: rgb(51, 51, 51);" y="318" opacity="1">lunes</text><text x="557.6875" text-anchor="middle" transform="translate(0,0)" style="color: rgb(51, 51, 51); cursor: default; font-size: 0.8em; fill: rgb(51, 51, 51);" y="318" opacity="1">martes</text></g><g class="highcharts-axis-labels highcharts-yaxis-labels" data-z-index="7"><text x="58" text-anchor="end" transform="translate(0,0)" style="color: rgb(51, 51, 51); cursor: default; font-size: 0.8em; fill: rgb(51, 51, 51);" y="295" opacity="1">0</text><text x="58" text-anchor="end" transform="translate(0,0)" style="color: rgb(51, 51, 51); cursor: default; font-size: 0.8em; fill: rgb(51, 51, 51);" y="225" opacity="1">100</text><text x="58" text-anchor="end" transform="translate(0,0)" style="color: rgb(51, 51, 51); cursor: default; font-size: 0.8em; fill: rgb(51, 51, 51);" y="155" opacity="1">200</text><text x="58" text-anchor="end" transform="translate(0,0)" style="color: rgb(51, 51, 51); cursor: default; font-size: 0.8em; fill: rgb(51, 51, 51);" y="84" opacity="1">300</text><text x="58" text-anchor="end" transform="translate(0,0)" style="color: rgb(51, 51, 51); cursor: default; font-size: 0.8em; fill: rgb(51, 51, 51);" y="14" opacity="1">400</text></g><text x="590" class="highcharts-credits" text-anchor="end" data-z-index="8" y="395" style="cursor: pointer; color: rgb(153, 153, 153); font-size: 0.6em; fill: rgb(153, 153, 153);">Highcharts.com</text></svg>